<svg width="153" height="154" viewBox="0 0 153 154" fill="none" xmlns="http://www.w3.org/2000/svg">
<path d="M13.6336 33.1255L14.7239 31.9418L20.9147 33.2465L21.0099 33.1431L19.191 27.0918L20.2919 25.8965L22.4677 33.6361L25.996 36.8859L25.0433 37.9202L21.515 34.6705L13.6336 33.1255ZM37.5151 24.8534L31.8334 14.6935L37.9702 11.2616L38.5803 12.3526L33.6708 15.0981L35.5698 18.4938L40.152 15.9313L40.7621 17.0223L36.18 19.5848L38.1323 23.076L43.11 20.2923L43.7201 21.3833L37.5151 24.8534ZM55.7732 15.1913L54.3152 15.4695L56.3392 3.2328L57.7666 2.96049L64.138 13.5956L62.6953 13.8708L57.4368 4.90041L57.3447 4.91798L55.7732 15.1913ZM55.4584 10.6225L61.306 9.50695L61.5403 10.7348L55.6926 11.8504L55.4584 10.6225ZM76.4039 11.5881L77.9569 0.0515439L81.8592 0.576834C82.7625 0.698428 83.4798 0.952642 84.011 1.33947C84.5482 1.72184 84.92 2.2002 85.1264 2.77454C85.3336 3.34373 85.3913 3.96899 85.2996 4.65035C85.2086 5.32654 84.9883 5.90913 84.6387 6.39811C84.2942 6.88778 83.8128 7.2434 83.1944 7.46497C82.5818 7.68206 81.8265 7.73016 80.9283 7.60926L77.7848 7.18611L77.9536 5.9318L81.0507 6.34869C81.6701 6.43207 82.1804 6.40879 82.5815 6.27885C82.9826 6.14891 83.2906 5.93023 83.5054 5.62281C83.7209 5.31022 83.8596 4.92423 83.9214 4.46483C83.984 4.00027 83.9508 3.58326 83.8218 3.2138C83.698 2.84503 83.4606 2.53979 83.1095 2.29808C82.7584 2.05637 82.2705 1.89348 81.646 1.80941L79.1838 1.47797L77.7976 11.7757L76.4039 11.5881ZM83.0471 12.4824L80.9581 6.91957L82.5376 7.13218L84.6731 12.7012L83.0471 12.4824ZM100.25 16.5055C99.5023 16.1377 98.9136 15.7 98.4841 15.1927C98.0569 14.6807 97.7925 14.1327 97.6909 13.5487C97.5963 12.9623 97.6682 12.3737 97.9067 11.7828L99.2105 12.4243C99.0548 12.8353 99.0282 13.2256 99.1307 13.5953C99.2379 13.9673 99.4404 14.3049 99.7382 14.6081C100.036 14.9114 100.393 15.1653 100.809 15.3699C101.29 15.6067 101.761 15.74 102.223 15.7696C102.689 15.8016 103.104 15.7302 103.469 15.5555C103.833 15.3808 104.11 15.1018 104.298 14.7186C104.469 14.3728 104.508 14.0441 104.418 13.7325C104.327 13.421 104.157 13.1193 103.905 12.8274C103.659 12.5378 103.376 12.2508 103.058 11.9664L101.961 10.9741C101.259 10.3381 100.776 9.68551 100.513 9.01637C100.257 8.34485 100.303 7.65625 100.65 6.95058C100.937 6.36641 101.344 5.93404 101.871 5.65347C102.405 5.37052 103.001 5.23975 103.658 5.26115C104.319 5.28485 104.982 5.45995 105.646 5.78644C106.319 6.11753 106.857 6.53335 107.261 7.03388C107.667 7.52973 107.922 8.0615 108.026 8.62918C108.132 9.19219 108.066 9.73999 107.827 10.2726L106.593 9.6656C106.785 9.12164 106.734 8.60021 106.44 8.10131C106.15 7.6047 105.687 7.20005 105.052 6.88735C104.594 6.66202 104.155 6.53906 103.736 6.51846C103.316 6.49787 102.946 6.57129 102.626 6.73872C102.306 6.90616 102.063 7.15812 101.897 7.4946C101.715 7.8638 101.683 8.21922 101.799 8.56088C101.918 8.89786 102.103 9.20647 102.354 9.4867C102.609 9.76923 102.847 10.0111 103.068 10.2123L103.974 11.0241C104.208 11.2322 104.46 11.481 104.73 11.7704C105.005 12.0622 105.243 12.3914 105.446 12.7581C105.653 13.1271 105.775 13.5293 105.81 13.9647C105.848 14.3953 105.746 14.856 105.504 15.3467C105.228 15.9075 104.831 16.3445 104.311 16.6576C103.793 16.9661 103.188 17.1179 102.493 17.113C101.802 17.1035 101.054 16.901 100.25 16.5055ZM129.007 38.6229C128.492 37.7776 128.24 36.8976 128.25 35.9828C128.261 35.0681 128.53 34.1879 129.057 33.3422C129.592 32.4982 130.383 31.7581 131.428 31.1217C132.478 30.4825 133.501 30.1192 134.496 30.0315C135.494 29.9484 136.402 30.1123 137.219 30.5233C138.037 30.9344 138.702 31.5625 139.217 32.4078C139.734 33.2576 139.986 34.1376 139.973 35.0479C139.96 35.9582 139.687 36.8353 139.151 37.6793C138.616 38.5232 137.824 39.2647 136.774 39.9038C135.729 40.5402 134.708 40.9023 133.713 40.9899C132.722 41.0748 131.819 40.914 131.004 40.5074C130.19 40.1008 129.524 39.4726 129.007 38.6229ZM130.128 37.9405C130.493 38.5411 130.975 38.9918 131.573 39.2925C132.178 39.5951 132.863 39.7086 133.628 39.6332C134.395 39.5622 135.209 39.2653 136.067 38.7427C136.93 38.2173 137.57 37.6299 137.985 36.9806C138.408 36.333 138.622 35.6724 138.627 34.9989C138.638 34.3271 138.461 33.6909 138.096 33.0903C137.73 32.4897 137.245 32.0381 136.64 31.7356C136.04 31.4303 135.353 31.3146 134.581 31.3883C133.814 31.4593 132.998 31.7575 132.135 32.2828C131.276 32.8055 130.639 33.3915 130.224 34.0408C129.808 34.6902 129.595 35.353 129.586 36.0292C129.582 36.7028 129.762 37.3398 130.128 37.9405ZM138.258 54.1638L149.627 51.6633L151.127 58.4847L149.906 58.7532L148.708 53.3053L144.74 54.1779L145.825 59.107L144.604 59.3755L143.52 54.4464L138.56 55.5372L138.258 54.1638ZM141.211 88.9548L152.243 92.6714L149.998 99.3346L148.813 98.9355L150.609 93.6049L146.922 92.3628L145.246 97.338L144.061 96.9389L145.738 91.9637L141.947 90.6866L140.126 96.0912L138.942 95.6921L141.211 88.9548ZM143.374 115.508L137.698 115.012L137.642 115.088L139.727 120.39L138.736 121.717L136.255 115.3L129.41 114.751L130.401 113.424L136.002 113.863L136.058 113.787L134.048 108.541L135.039 107.214L137.452 113.697L144.365 114.181L143.374 115.508ZM121.699 124.534L128.377 134.069L125.151 136.328C124.405 136.851 123.701 137.144 123.039 137.207C122.373 137.272 121.765 137.158 121.215 136.863C120.665 136.568 120.192 136.138 119.798 135.575C119.407 135.016 119.165 134.426 119.072 133.804C118.976 133.185 119.071 132.571 119.358 131.964C119.643 131.363 120.157 130.803 120.899 130.283L123.203 128.67L123.92 129.694L121.654 131.28C121.143 131.639 120.792 132.015 120.603 132.408C120.414 132.801 120.355 133.198 120.427 133.599C120.501 134.005 120.671 134.398 120.937 134.778C121.206 135.162 121.515 135.454 121.865 135.654C122.218 135.858 122.612 135.935 123.047 135.884C123.481 135.841 123.956 135.639 124.473 135.277L126.508 133.852L120.547 125.341L121.699 124.534ZM104.489 136.194L107.858 147.336L101.127 149.371L100.766 148.175L106.15 146.547L105.024 142.823L99.9986 144.342L99.6368 143.146L104.662 141.626L103.505 137.797L98.0456 139.448L97.6838 138.251L104.489 136.194ZM85.0627 141.734L84.8188 153.372L80.8822 153.289C79.9709 153.27 79.2295 153.098 78.6581 152.774C78.0813 152.454 77.658 152.021 77.3882 151.473C77.1182 150.931 76.9905 150.316 77.0049 149.629C77.0192 148.947 77.1725 148.343 77.4648 147.818C77.7519 147.293 78.1902 146.885 78.7798 146.595C79.364 146.311 80.1091 146.178 81.0152 146.197L84.1864 146.263L84.1598 147.528L81.0355 147.463C80.4107 147.45 79.9063 147.531 79.5223 147.705C79.1384 147.879 78.857 148.131 78.6782 148.461C78.4992 148.796 78.4049 149.195 78.3952 149.658C78.3854 150.127 78.4653 150.537 78.6351 150.89C78.7996 151.243 79.0699 151.519 79.446 151.72C79.8221 151.92 80.3251 152.027 80.9552 152.04L83.439 152.093L83.6568 141.704L85.0627 141.734ZM78.3611 141.593L81.0633 146.885L79.4699 146.852L76.7208 141.559L78.3611 141.593ZM59.4702 151.747L62.853 140.609L64.1986 141.017L60.8158 152.156L59.4702 151.747ZM50.0073 136.418L43.7624 146.242L37.8286 142.47L38.4992 141.415L43.2462 144.433L45.3335 141.149L40.9029 138.333L41.5735 137.278L46.004 140.095L48.1499 136.719L43.337 133.659L44.0075 132.604L50.0073 136.418ZM18.2753 125.386L27.3491 118.095L28.2202 119.179L25.0592 129.837L25.1375 129.935L32.2625 124.209L33.1434 125.305L24.0696 132.597L23.2181 131.537L26.362 120.832L26.2935 120.747L19.1562 126.483L18.2753 125.386ZM17.8522 102.942C18.1733 103.878 18.2307 104.791 18.0243 105.683C17.8179 106.574 17.3653 107.373 16.6665 108.081C15.9628 108.79 15.032 109.344 13.8743 109.741C12.7116 110.14 11.6348 110.275 10.6438 110.147C9.65276 110.019 8.80227 109.666 8.09231 109.089C7.38235 108.513 6.86683 107.756 6.54576 106.82C6.35649 106.268 6.2595 105.721 6.25478 105.177C6.24837 104.629 6.33276 104.104 6.50795 103.604C6.6782 103.105 6.94271 102.648 7.30147 102.233C7.6536 101.815 8.09359 101.46 8.62142 101.169L9.07768 102.499C8.72045 102.71 8.4303 102.963 8.20722 103.26C7.98246 103.552 7.81971 103.872 7.71897 104.221C7.61161 104.566 7.56612 104.923 7.5825 105.292C7.59395 105.662 7.66221 106.03 7.78726 106.394C8.01539 107.059 8.39236 107.604 8.91818 108.03C9.43907 108.457 10.0845 108.717 10.8545 108.811C11.6179 108.902 12.4775 108.783 13.4332 108.455C14.3841 108.129 15.133 107.696 15.6801 107.156C16.2255 106.611 16.5752 106.009 16.7293 105.35C16.8784 104.694 16.8389 104.033 16.6107 103.368C16.4857 103.003 16.3164 102.67 16.103 102.369C15.8846 102.069 15.6296 101.816 15.3379 101.607C15.0396 101.396 14.7122 101.244 14.3556 101.151C13.9973 101.054 13.6125 101.032 13.2012 101.085L12.745 99.7545C13.3453 99.6587 13.9128 99.6678 14.4475 99.7818C14.9804 99.8908 15.4697 100.089 15.9152 100.377C16.3559 100.666 16.742 101.029 17.0735 101.466C17.4034 101.898 17.663 102.39 17.8522 102.942ZM12.2322 86.2817L0.638588 87.3273L0.00701756 80.3244L1.25196 80.2122L1.75722 85.8144L5.63212 85.465L5.16055 80.2362L6.40549 80.1239L6.87707 85.3527L10.8609 84.9934L10.3486 79.3133L11.5936 79.201L12.2322 86.2817Z" fill="#1E1E1E"/>
</svg>
